<svg width="114" height="114" viewBox="0 0 114 114" fill="none" xmlns="http://www.w3.org/2000/svg">
<g id="icon.svg - 2025-02-17T182116.412 1">
<path id="Vector" fill-rule="evenodd" clip-rule="evenodd" d="M90.0803 26.6589H85.237V20.058L67.5706 2.41809H20.6859V19.4083H15.8427C12.0014 19.4083 8.83612 22.5462 8.83612 26.4153V58.9345H23.4453V5.17814H66.4344L67.5708 6.31391V20.0583H81.3417L82.4777 21.1942V38.9696H97.0601V33.6657C97.0596 29.8237 93.9215 26.6589 90.0803 26.6589ZM97.0596 81.7685C99.6295 81.7685 102.011 82.4174 104.121 83.5547V81.065C104.121 77.1959 100.928 74.0304 97.0596 74.0304C93.1912 74.0304 90.0255 77.1959 90.0255 81.065V83.5547C92.1361 82.4174 94.5169 81.7685 97.0596 81.7685ZM108.017 86.5846C110.479 89.2353 111.967 92.78 111.967 96.6756C111.967 104.9 105.312 111.582 97.0596 111.582C88.8352 111.582 82.1526 104.9 82.1526 96.6756C82.1526 92.78 83.6682 89.2353 86.1032 86.5846V81.0652C86.1032 75.0321 91.0535 70.1078 97.0596 70.1078C103.093 70.1078 108.017 75.0321 108.017 81.0652V86.5846ZM97.0596 91.4267C98.6018 91.4267 99.8466 92.6722 99.8466 94.2135C99.8466 95.2417 99.2782 96.1341 98.4399 96.6215V101.789C98.4399 102.682 97.8173 103.412 97.0599 103.412C96.3024 103.412 95.7077 102.682 95.7077 101.789V96.6215C94.8687 96.1341 94.3005 95.2417 94.3005 94.2135C94.3003 92.6722 95.5449 91.4267 97.0596 91.4267ZM75.9033 35.1272C76.661 35.1272 77.2833 35.7493 77.2833 36.5068C77.2833 37.2645 76.661 37.8592 75.9033 37.8592H30.0196C29.2617 37.8592 28.6396 37.2645 28.6396 36.5068C28.6396 35.7493 29.2615 35.1272 30.0196 35.1272H75.9033ZM52.3391 15.1607C53.0962 15.1607 53.7187 15.7837 53.7187 16.5403C53.7187 17.2982 53.0962 17.9205 52.3391 17.9205H30.0196C29.2617 17.9205 28.6396 17.2982 28.6396 16.5403C28.6396 15.7837 29.2615 15.1607 30.0196 15.1607H52.3391ZM75.9033 25.1444C76.661 25.1444 77.2833 25.7658 77.2833 26.5235C77.2833 27.2814 76.661 27.904 75.9033 27.904H42.4913C41.7342 27.904 41.1115 27.2814 41.1115 26.5235C41.1115 25.7658 41.7342 25.1444 42.4913 25.1444H75.9033ZM36.2687 25.1444C37.0531 25.1444 37.649 25.7658 37.649 26.5235C37.649 27.2814 37.0531 27.904 36.2687 27.904H30.0196C29.2617 27.904 28.6396 27.2814 28.6396 26.5235C28.6396 25.7658 29.2615 25.1444 30.0196 25.1444H36.2687ZM29.6133 61.6671L45.2509 41.7281H104.635C105.609 41.7281 106.448 42.1075 107.043 42.864C107.665 43.5948 107.909 44.515 107.719 45.4613L103.174 68.8095C101.335 67.8897 99.2515 67.3489 97.0596 67.3489C89.5385 67.3489 83.3701 73.5169 83.3701 81.0652V85.5564C80.8004 88.6949 79.4204 92.6175 79.4204 96.6756C79.4204 98.2442 79.6368 99.7875 80.016 101.22H12.5694C10.5132 101.22 8.78201 99.8137 8.40328 97.7844L2.09899 65.4006C1.91017 64.4541 2.12615 63.5611 2.74892 62.8034C3.37102 62.0724 4.20977 61.6669 5.15606 61.6669H29.6133V61.6671Z" fill="#D6E2F3"/>
</g>
</svg>
