<svg width="39" height="39" viewBox="0 0 39 39" fill="none" xmlns="http://www.w3.org/2000/svg">
<g clip-path="url(#clip0_0_945)">
<path fill-rule="evenodd" clip-rule="evenodd" d="M19.4377 0.59082C22.9533 0.630937 26.1293 1.49496 28.9657 3.1829C31.7683 4.83713 34.0996 7.1827 35.7367 9.9953C37.4143 12.8488 38.2732 16.044 38.3131 19.581C38.2135 24.4204 36.6871 28.5538 33.7339 31.9811C30.7808 35.4084 26.9984 37.5287 23.083 38.3415V24.7732H26.7847L27.6219 19.4412H22.0166V15.9488C21.9855 15.2248 22.2145 14.5136 22.6621 13.9437C23.1104 13.3723 23.8998 13.072 25.0302 13.0427H28.4151V8.37198C28.3665 8.35636 27.9057 8.29457 27.0325 8.18661C26.0423 8.07076 25.0466 8.00887 24.0497 8.00124C21.7933 8.01165 20.0088 8.64813 18.6962 9.91067C17.3836 11.1729 16.713 12.999 16.6846 15.389V19.4412H12.419V24.7732H16.6846V38.3415C11.877 37.5287 8.09472 35.4084 5.14154 31.9811C2.18836 28.5538 0.662026 24.4204 0.562378 19.581C0.602246 16.0438 1.46105 12.8486 3.13878 9.9953C4.77593 7.1827 7.10726 4.83714 9.90983 3.1829C12.7461 1.49529 15.9221 0.631262 19.4377 0.59082Z" fill="white"/>
</g>
<defs>
<clipPath id="clip0_0_945">
<rect width="39" height="39" fill="white"/>
</clipPath>
</defs>
</svg>
