<svg width="39" height="39" viewBox="0 0 39 39" fill="none" xmlns="http://www.w3.org/2000/svg">
<g clip-path="url(#clip0_0_941)">
<path d="M19.5 0C8.72991 0 0 8.73112 0 19.5C0 30.2689 8.72991 39 19.5 39C30.2689 39 39 30.2689 39 19.5C39 8.73112 30.2701 0 19.5 0ZM19.7108 29.9764C13.923 29.9764 9.23447 25.2878 9.23447 19.5C9.23447 13.7122 13.923 9.02362 19.7108 9.02362C22.5396 9.02362 24.9039 10.0657 26.7162 11.7536L23.7632 14.7067V14.7006C22.6639 13.6524 21.2684 13.1162 19.7108 13.1162C16.2545 13.1162 13.4452 16.0363 13.4452 19.4927C13.4452 22.9491 16.2545 25.8765 19.7108 25.8765C22.8467 25.8765 24.9819 24.0825 25.4207 21.6206H19.7108V17.5342H29.5644C29.6948 18.2337 29.7668 18.9686 29.7668 19.734C29.7668 25.7205 25.7595 29.9764 19.7108 29.9764Z" fill="white"/>
</g>
<defs>
<clipPath id="clip0_0_941">
<rect width="39" height="39" fill="white"/>
</clipPath>
</defs>
</svg>
