<svg width="39" height="39" viewBox="0 0 39 39" fill="none" xmlns="http://www.w3.org/2000/svg">
<g clip-path="url(#clip0_0_947)">
<path fill-rule="evenodd" clip-rule="evenodd" d="M19.5 0C8.73082 0 0 8.73082 0 19.5C0 30.2692 8.73082 39 19.5 39C30.2692 39 39 30.2692 39 19.5C39 8.73082 30.2692 0 19.5 0ZM29.981 8.03178L21.6333 17.7353L30.7118 30.9482H24.0347L17.9209 22.0506L10.2664 30.9482H8.28818L17.0426 20.7725L8.28818 8.03178H14.9654L20.7545 16.4572L28.0029 8.03178H29.981Z" fill="white"/>
<path d="M10.9792 9.52099H14.0177L28.0038 29.5267H24.9653L10.9792 9.52099Z" fill="white"/>
</g>
<defs>
<clipPath id="clip0_0_947">
<rect width="39" height="39" fill="white"/>
</clipPath>
</defs>
</svg>
