<svg width="114" height="114" viewBox="0 0 114 114" fill="none" xmlns="http://www.w3.org/2000/svg">
<g clip-path="url(#clip0_0_746)">
<path d="M39.3591 87.9768C37.1785 87.9768 35.1478 86.9989 33.7885 85.2941L29.0165 79.3104L24.8181 77.2885L13.8565 99.3357C13.307 100.441 13.3689 101.753 14.0204 102.801C14.6704 103.848 15.815 104.484 17.0465 104.484H17.0546L27.2224 104.461L33.3412 112.582C34.0178 113.48 35.0739 114 36.1859 114C36.295 114 36.4045 113.995 36.5143 113.985C37.7438 113.871 38.8268 113.129 39.3763 112.024L50.4975 89.6552L47.0125 87.9768H39.3591Z" fill="#D6E2F3"/>
<path d="M100.143 99.3354L89.1816 77.2882L84.9832 79.3102L80.2112 85.294C78.8519 86.9987 76.8215 87.9766 74.6406 87.9766H66.987L63.502 89.655L74.6232 112.023C75.1729 113.129 76.2559 113.871 77.4852 113.985C77.595 113.995 77.7045 114 77.8136 114C78.9254 114 79.9816 113.479 80.6583 112.581L86.7771 104.461L96.9449 104.484H96.9529C98.1844 104.484 99.3291 103.848 99.9791 102.801C100.631 101.752 100.693 100.441 100.143 99.3354Z" fill="#D6E2F3"/>
<path d="M74.6408 84.4143C75.7249 84.4143 76.7502 83.9207 77.426 83.0731L82.705 76.4535L90.3332 72.7799C91.31 72.3094 92.0193 71.4199 92.2607 70.3629L94.1448 62.1084L99.4238 55.4888C100.1 54.6412 100.353 53.5319 100.112 52.475L98.2277 44.2206L100.112 35.9661C100.353 34.9089 100.1 33.7999 99.4238 32.952L94.1448 26.3327L92.2607 18.0781C92.0196 17.0212 91.31 16.1317 90.3332 15.6612L82.705 11.9876L77.426 5.36802C76.75 4.52037 75.7249 4.02674 74.6408 4.02674H66.1741L58.5456 0.352688C57.5686 -0.117563 56.4311 -0.117563 55.4541 0.352688L47.8259 4.02629H39.3591C38.275 4.02629 37.2497 4.51992 36.5739 5.36757L31.295 11.9871L23.6668 15.6607C22.69 16.1312 21.9806 17.0207 21.7392 18.0777L19.8551 26.3322L14.5762 32.9516C13.9002 33.7992 13.647 34.9085 13.8884 35.9657L15.7723 44.2202L13.8884 52.4745C13.6472 53.5315 13.9002 54.6407 14.5762 55.4884L19.8551 62.108L21.7392 70.3625C21.9804 71.4194 22.69 72.309 23.6668 72.7794L31.295 76.453L36.5739 83.0726C37.2499 83.9202 38.275 84.4139 39.3591 84.4139H47.8259L55.4541 88.0875C55.9426 88.3226 56.4711 88.4402 56.9997 88.4402C57.5283 88.4402 58.0571 88.3226 58.5454 88.0875L66.1736 84.4139H74.6403L74.6408 84.4143ZM57 75.3923C39.8118 75.3923 25.8281 61.4086 25.8281 44.2204C25.8281 27.0323 39.8118 13.0485 57 13.0485C74.1881 13.0485 88.1718 27.0323 88.1718 44.2204C88.1718 61.4086 74.1881 75.3923 57 75.3923Z" fill="#D6E2F3"/>
<path d="M57 16.6111C41.7761 16.6111 29.3906 28.9966 29.3906 44.2205C29.3906 59.4444 41.7761 71.8298 57 71.8298C72.2239 71.8298 84.6094 59.4444 84.6094 44.2205C84.6094 28.9966 72.2239 16.6111 57 16.6111ZM57.7377 52.3942C57.0461 53.0857 56.1339 53.4378 55.2179 53.4378C54.4339 53.4378 53.647 53.1801 52.9933 52.6571L44.0871 45.5321L48.5379 39.9686L54.9542 45.1017L65.1684 34.8876L70.2064 39.9256L57.7377 52.3944V52.3942Z" fill="#D6E2F3"/>
</g>
<defs>
<clipPath id="clip0_0_746">
<rect width="114" height="114" fill="white"/>
</clipPath>
</defs>
</svg>
