<svg width="200" height="32" viewBox="0 0 200 32" fill="none" xmlns="http://www.w3.org/2000/svg">
<path d="M6.22686 17.9779C7.83819 27.9145 21.2272 29.1931 28.6573 17.9779L33.1434 23.3051C24.8722 34.8007 5.52592 33.8193 1.3202 22.7443C-2.77904 11.9497 3.14268 3.11771 12.5354 0.734478C21.9282 -1.64875 29.7788 2.69714 38.05 15.1741C46.3213 27.651 55.4336 27.0902 60.2001 24.5668C64.9665 22.0434 68.1909 11.2487 58.658 7.18322C51.0316 3.93081 43.7044 10.3141 40.994 13.9124L36.9285 8.72532C42.6483 1.99619 49.826 0.313907 54.4523 0.313907C67.7984 1.21112 70.8545 11.2487 70.8545 15.875C70.8545 28.4361 59.4991 31.9969 54.4523 31.9969C44.3586 31.8847 36.2623 23.1649 33.1434 18.6788C24.9563 6.90286 18.9842 5.56379 15.9 6.20191C7.76895 7.88419 5.38572 12.7908 6.22686 17.9779Z" fill="url(#paint0_linear_47_4168)"/>
<path d="M11.9747 16.3403L16.3796 9.14588L20.7846 16.3403L16.3796 18.9064L11.9747 16.3403Z" fill="white"/>
<path d="M16.3796 19.7148L20.6435 17.0677L16.3796 23.1298L12.0151 17.0677L16.3796 19.7148Z" fill="white"/>
<path d="M58.7251 16.6062C58.4366 16.2272 58.0013 15.9669 57.4192 15.8254C58.1605 15.4411 58.4863 14.789 58.3968 13.8689C58.3669 13.5353 58.2762 13.2461 58.1244 13.001C57.9725 12.7559 57.7675 12.5588 57.5086 12.4097C57.25 12.2604 56.9687 12.1467 56.6654 12.0684C56.362 11.9901 56.0137 11.9332 55.6207 11.8978V9.98702H54.4716V11.8447C54.2726 11.8447 53.9692 11.8498 53.5613 11.8599V9.98702H52.4121V11.8978C52.2479 11.9029 52.0067 11.9055 51.6883 11.9055L50.1064 11.8978V13.1414H50.9346C51.3127 13.1414 51.5341 13.3133 51.5987 13.657V15.8332C51.6485 15.8332 51.6883 15.8358 51.7182 15.8408H51.5987V18.8889C51.559 19.1466 51.4147 19.2756 51.166 19.2756H50.3378L50.1064 20.6632H51.5989C51.6934 20.6632 51.8301 20.6645 52.0093 20.6668C52.1883 20.6694 52.3226 20.6706 52.4122 20.6706V22.6041H53.5616V20.6934C53.7704 20.6985 54.0739 20.701 54.4719 20.701V22.6041H55.6209V20.6706C56.0289 20.6504 56.3908 20.6127 56.7066 20.5569C57.0225 20.5011 57.3248 20.4141 57.6132 20.2952C57.9017 20.1765 58.1429 20.0285 58.3369 19.8516C58.531 19.6748 58.6913 19.4498 58.8184 19.1768C58.945 18.9038 59.026 18.5878 59.0607 18.2288C59.1256 17.5264 59.0136 16.9854 58.7251 16.6062ZM53.5837 13.2246C53.6185 13.2246 53.7168 13.2233 53.8784 13.2207C54.0402 13.2181 54.1744 13.2156 54.2814 13.2131C54.3884 13.2106 54.5326 13.2169 54.7143 13.2321C54.8959 13.2472 55.0488 13.2675 55.1731 13.2927C55.2975 13.318 55.4344 13.3597 55.5835 13.4178C55.7329 13.4759 55.8522 13.5467 55.9416 13.6301C56.0312 13.7135 56.1071 13.8197 56.1692 13.9486C56.2314 14.0775 56.2625 14.2253 56.2625 14.3921C56.2625 14.5337 56.2402 14.6626 56.1955 14.7789C56.1508 14.8952 56.0835 14.9925 55.9941 15.0709C55.9046 15.1492 55.8124 15.2175 55.7178 15.2756C55.6234 15.3337 55.5027 15.3805 55.356 15.4159C55.2093 15.4513 55.0812 15.4791 54.9718 15.4992C54.8624 15.5195 54.7256 15.5334 54.5614 15.541C54.3972 15.5485 54.2728 15.5537 54.1883 15.5562C54.1036 15.5587 53.988 15.5587 53.8412 15.5562C53.6944 15.5537 53.6087 15.5523 53.5837 15.5523L53.5837 13.2246ZM56.7216 18.3882C56.6742 18.5045 56.6133 18.6056 56.5388 18.6916C56.4641 18.7774 56.3658 18.8533 56.244 18.9189C56.1222 18.9848 56.0039 19.0377 55.8896 19.0782C55.7751 19.1188 55.637 19.154 55.4755 19.1844C55.3136 19.2148 55.1719 19.2361 55.0499 19.2488C54.9281 19.2615 54.7826 19.2716 54.6134 19.2792C54.4444 19.2867 54.3125 19.2905 54.218 19.2905C54.1234 19.2905 54.004 19.2891 53.8597 19.2867C53.7154 19.2843 53.6235 19.283 53.5836 19.283V16.72C53.6234 16.72 53.7415 16.7176 53.9381 16.7124C54.1346 16.7073 54.295 16.705 54.4194 16.705C54.5437 16.705 54.7154 16.7124 54.9344 16.7277C55.1531 16.7428 55.3372 16.7654 55.4866 16.7957C55.6358 16.8261 55.7986 16.8728 55.9753 16.9361C56.1519 16.9992 56.295 17.0763 56.4044 17.1673C56.5139 17.2584 56.6059 17.3745 56.6805 17.5161C56.7552 17.6576 56.7925 17.8194 56.7925 18.0014C56.7925 18.1431 56.7689 18.2718 56.7216 18.3882Z" fill="white"/>
<path d="M89.119 14.4462H89.096C86.521 14.4462 85.3714 15.2279 84.9805 16.5384H93.2574C92.9125 15.2279 91.717 14.4462 89.119 14.4462ZM98.3614 19.9181V19.9411C98.3614 21.6194 97.2578 24.6313 89.8777 24.6313H88.5672C81.9687 24.6313 79.8535 21.5505 79.8535 18.3087V17.8029C79.8535 14.6301 81.7388 11.5723 88.4292 11.5723H89.8317C97.0969 11.5723 98.4304 15.2279 98.4304 18.2397V19.0904H84.8886C85.1875 20.5388 86.429 21.5045 89.2569 21.5045H89.2799C92.6826 21.5045 93.2344 20.217 93.3034 19.9181H98.3614Z" fill="white"/>
<path d="M100.214 24.2864V7.18097H114.86C119.757 7.18097 121.113 9.06624 121.113 11.0895V11.4113C121.113 13.6415 119.228 14.4922 118.4 14.7451C119.573 15.044 122.079 16.0326 122.079 19.0444V19.3663C122.079 22.0563 120.538 24.2864 114.998 24.2864H100.214ZM113.94 10.7906H105.571V13.5725H113.94C115.434 13.5725 115.802 12.8828 115.802 12.193V12.1471C115.802 11.4343 115.434 10.7906 113.94 10.7906ZM114.4 17.2051H105.571V20.5618H114.4C116.17 20.5618 116.515 19.5732 116.515 18.8835V18.7915C116.515 18.0558 116.17 17.2051 114.4 17.2051Z" fill="white"/>
<path d="M130.031 24.2864V11.2274H122.673V7.18097H142.814V11.2274H135.433V24.2864H130.031Z" fill="white"/>
<path d="M155.833 24.5853H154.891C144.982 24.5853 143.441 19.0444 143.441 16.0096V15.3428C143.441 12.239 144.775 6.88208 154.891 6.88208H155.833C165.743 6.88208 167.283 11.6183 167.283 13.6185V13.8714H161.604C161.466 13.4116 160.777 11.0205 155.351 11.0205C150.224 11.0205 149.051 13.3196 149.051 15.4578V15.7337C149.051 17.7569 150.408 20.4239 155.397 20.4239C160.938 20.4239 161.489 17.7799 161.627 17.3891H167.306V17.642C167.306 19.8031 165.605 24.5853 155.833 24.5853Z" fill="white"/>
<path d="M173.651 18.8285V18.8756C173.651 19.6646 174.393 20.5243 175.994 20.5243H176.053C177.749 20.5243 178.22 19.6411 178.22 18.8756V18.8285C178.22 18.016 177.749 17.1917 176.053 17.1917H175.994C174.358 17.1917 173.651 18.016 173.651 18.8285ZM171.025 15.7079H173.651V16.6146C173.934 16.3673 174.946 15.5548 176.866 15.5548H177.078C179.951 15.5548 180.905 16.9915 180.905 18.7343V18.9581C180.905 20.6185 179.916 22.1965 176.995 22.1965H176.807C174.923 22.1965 173.863 21.3839 173.651 21.1484V24.2572H171.025V15.7079Z" fill="url(#paint1_linear_47_4168)"/>
<path d="M184.346 18.7696V22.0434H181.72V15.7079H184.322V16.8266C184.546 16.4733 185.312 15.5666 186.89 15.5666H187.019C188.856 15.5666 189.598 16.756 189.598 18.3928V18.7579H187.066C187.066 17.9453 186.713 17.2388 185.724 17.2388H185.712C184.829 17.2388 184.346 17.9571 184.346 18.7696Z" fill="url(#paint2_linear_47_4168)"/>
<path d="M195.467 22.22H194.642C190.968 22.22 190.085 20.4065 190.085 18.9463V18.7343C190.085 17.2741 190.956 15.5312 194.63 15.5312H195.467C199.329 15.5312 200 17.2976 200 18.7343V18.9463C200 20.4065 199.376 22.22 195.467 22.22ZM195.054 20.5125C196.844 20.5125 197.339 19.6175 197.339 18.8756V18.8167C197.339 18.0278 196.833 17.2152 195.066 17.2152H195.054C193.264 17.2152 192.77 18.016 192.77 18.8167V18.8756C192.77 19.6175 193.264 20.5125 195.054 20.5125Z" fill="url(#paint3_linear_47_4168)"/>
<defs>
<linearGradient id="paint0_linear_47_4168" x1="29.7589" y1="0.109009" x2="43.0337" y2="34.0123" gradientUnits="userSpaceOnUse">
<stop stop-color="#00FFFF"/>
<stop offset="0.5" stop-color="#00C8E0"/>
<stop offset="1" stop-color="#0096A5"/>
</linearGradient>
<linearGradient id="paint1_linear_47_4168" x1="183.195" y1="15.5313" x2="185.818" y2="25.5438" gradientUnits="userSpaceOnUse">
<stop stop-color="#00FFFF"/>
<stop offset="0.5" stop-color="#00C8E0"/>
<stop offset="1" stop-color="#0096A5"/>
</linearGradient>
<linearGradient id="paint2_linear_47_4168" x1="183.195" y1="15.5313" x2="185.818" y2="25.5438" gradientUnits="userSpaceOnUse">
<stop stop-color="#00FFFF"/>
<stop offset="0.5" stop-color="#00C8E0"/>
<stop offset="1" stop-color="#0096A5"/>
</linearGradient>
<linearGradient id="paint3_linear_47_4168" x1="183.195" y1="15.5313" x2="185.818" y2="25.5438" gradientUnits="userSpaceOnUse">
<stop stop-color="#00FFFF"/>
<stop offset="0.5" stop-color="#00C8E0"/>
<stop offset="1" stop-color="#0096A5"/>
</linearGradient>
</defs>
</svg>
