<svg width="715" height="114" viewBox="0 0 715 114" fill="none" xmlns="http://www.w3.org/2000/svg">
<path d="M22.2086 63.7308C27.9556 99.1705 75.7086 103.731 102.209 63.7308L118.209 82.7308C88.7086 123.731 19.7086 120.231 4.70862 80.7308C-9.91166 42.2308 11.2086 10.7308 44.7086 2.23079C78.2086 -6.26921 106.209 9.23079 135.709 53.7308C165.209 98.2308 197.709 96.2308 214.709 87.2308C231.709 78.2308 243.209 39.7308 209.209 25.2308C182.009 13.6308 155.875 36.3975 146.209 49.2308L131.709 30.7308C152.109 6.73079 177.709 0.730788 194.209 0.730788C241.809 3.93079 252.709 39.7308 252.709 56.2308C252.709 101.031 212.209 113.731 194.209 113.731C158.209 113.331 129.332 82.2308 118.209 66.2308C89.0086 24.2308 67.7086 19.4549 56.7086 21.7308C27.7086 27.7308 19.2086 45.2308 22.2086 63.7308Z" fill="url(#paint0_radial_11_34)"/>
<path d="M42.7086 57.8902L58.4192 32.2308L74.1299 57.8902L58.4192 67.0426L42.7086 57.8902Z" fill="#1C2B34"/>
<path d="M58.4193 69.9258L73.6268 60.4845L58.4193 82.1057L42.853 60.4845L58.4193 69.9258Z" fill="#1C2B34"/>
<path d="M209.448 58.8388C208.419 57.4869 206.867 56.5584 204.791 56.0537C207.434 54.6833 208.596 52.3576 208.277 49.0759C208.171 47.8859 207.847 46.8546 207.306 45.9804C206.764 45.1061 206.033 44.4031 205.109 43.8714C204.187 43.3389 203.184 42.9336 202.102 42.6542C201.02 42.3748 199.778 42.1719 198.376 42.0458V35.2308H194.278V41.8564C193.568 41.8564 192.486 41.8744 191.031 41.9105V35.2308H186.932V42.0458C186.347 42.0639 185.486 42.0731 184.351 42.0731L178.709 42.0458V46.481H181.663C183.011 46.481 183.801 47.0942 184.031 48.32V56.0816C184.209 56.0816 184.351 56.0909 184.457 56.1089H184.031V66.98C183.889 67.8993 183.375 68.3593 182.488 68.3593H179.534L178.709 73.3084H184.032C184.369 73.3084 184.856 73.313 185.495 73.3211C186.134 73.3302 186.613 73.3348 186.932 73.3348V80.2308H191.032V73.4158C191.777 73.4343 192.859 73.4431 194.278 73.4431V80.2308H198.377V73.3348C199.832 73.2628 201.123 73.1283 202.249 72.9293C203.376 72.7303 204.454 72.4198 205.482 71.9958C206.511 71.5724 207.372 71.0447 208.063 70.4137C208.756 69.7832 209.327 68.9805 209.781 68.0068C210.232 67.033 210.521 65.9062 210.645 64.6259C210.876 62.1205 210.477 60.1912 209.448 58.8388ZM191.111 46.7777C191.235 46.7777 191.585 46.7732 192.162 46.7641C192.739 46.7548 193.218 46.7459 193.599 46.7368C193.981 46.7279 194.495 46.7504 195.143 46.8045C195.791 46.8586 196.336 46.9309 196.78 47.0209C197.223 47.1108 197.711 47.2596 198.243 47.467C198.776 47.6741 199.202 47.9267 199.521 48.2241C199.84 48.5215 200.111 48.9003 200.332 49.3601C200.554 49.8198 200.665 50.3471 200.665 50.9419C200.665 51.4468 200.585 51.9067 200.426 52.3216C200.267 52.7362 200.026 53.0833 199.708 53.3627C199.388 53.6423 199.06 53.8859 198.722 54.093C198.386 54.3002 197.955 54.4671 197.432 54.5932C196.909 54.7194 196.452 54.8186 196.062 54.8906C195.671 54.9628 195.183 55.0125 194.598 55.0394C194.012 55.0663 193.568 55.0847 193.267 55.0936C192.965 55.1025 192.553 55.1025 192.029 55.0936C191.506 55.0847 191.2 55.0799 191.111 55.0799L191.111 46.7777ZM202.302 65.1941C202.133 65.609 201.916 65.9698 201.65 66.2765C201.384 66.5825 201.033 66.8532 200.599 67.0872C200.164 67.3219 199.743 67.5109 199.335 67.6552C198.927 67.8 198.434 67.9255 197.858 68.0341C197.281 68.1423 196.775 68.2185 196.34 68.2639C195.906 68.309 195.387 68.3449 194.783 68.3722C194.18 68.3987 193.71 68.4125 193.373 68.4125C193.036 68.4125 192.61 68.4075 192.095 68.3987C191.58 68.3903 191.253 68.3858 191.11 68.3858V59.2447C191.252 59.2447 191.674 59.2359 192.375 59.2175C193.076 59.1993 193.648 59.1909 194.091 59.1909C194.535 59.1909 195.147 59.2175 195.928 59.2719C196.708 59.3256 197.365 59.4064 197.898 59.5146C198.43 59.623 199.01 59.7895 199.641 60.0151C200.27 60.2404 200.781 60.5153 201.171 60.8398C201.562 61.1649 201.89 61.5789 202.156 62.0838C202.422 62.5885 202.555 63.1656 202.555 63.8148C202.555 64.3201 202.471 64.7791 202.302 65.1941Z" fill="#1C2B34"/>
<path d="M317.85 51.1348H317.768C308.584 51.1348 304.484 53.9228 303.09 58.5968H332.61C331.38 53.9228 327.116 51.1348 317.85 51.1348ZM350.814 70.6508V70.7328C350.814 76.7188 346.878 87.4608 320.556 87.4608H315.882C292.348 87.4608 284.804 76.4728 284.804 64.9108V63.1068C284.804 51.7908 291.528 40.8848 315.39 40.8848H320.392C346.304 40.8848 351.06 53.9228 351.06 64.6648V67.6988H302.762C303.828 72.8648 308.256 76.3088 318.342 76.3088H318.424C330.56 76.3088 332.528 71.7168 332.774 70.6508H350.814ZM357.422 86.2308V25.2228H409.656C427.122 25.2228 431.96 31.9468 431.96 39.1628V40.3108C431.96 48.2648 425.236 51.2988 422.284 52.2008C426.466 53.2668 435.404 56.7928 435.404 67.5348V68.6828C435.404 78.2768 429.91 86.2308 410.148 86.2308H357.422ZM406.376 38.0968H376.528V48.0188H406.376C411.706 48.0188 413.018 45.5588 413.018 43.0988V42.9348C413.018 40.3928 411.706 38.0968 406.376 38.0968ZM408.016 60.9748H376.528V72.9468H408.016C414.33 72.9468 415.56 69.4208 415.56 66.9608V66.6328C415.56 64.0088 414.33 60.9748 408.016 60.9748ZM463.765 86.2308V39.6548H437.525V25.2228H509.357V39.6548H483.035V86.2308H463.765ZM555.793 87.2968H552.431C517.089 87.2968 511.595 67.5348 511.595 56.7108V54.3328C511.595 43.2628 516.351 24.1568 552.431 24.1568H555.793C591.135 24.1568 596.629 41.0488 596.629 48.1828V49.0848H576.375C575.883 47.4448 573.423 38.9168 554.071 38.9168C535.785 38.9168 531.603 47.1168 531.603 54.7428V55.7268C531.603 62.9428 536.441 72.4548 554.235 72.4548C573.997 72.4548 575.965 63.0248 576.457 61.6308H596.711V62.5328C596.711 70.2408 590.643 87.2968 555.793 87.2968Z" fill="#1C2B34"/>
<path d="M619.34 66.7648V66.9328C619.34 69.7468 621.986 72.8128 627.698 72.8128H627.908C633.956 72.8128 635.636 69.6628 635.636 66.9328V66.7648C635.636 63.8668 633.956 60.9268 627.908 60.9268H627.698C621.86 60.9268 619.34 63.8668 619.34 66.7648ZM609.974 55.6348H619.34V58.8688C620.348 57.9868 623.96 55.0888 630.806 55.0888H631.562C641.81 55.0888 645.212 60.2128 645.212 66.4288V67.2268C645.212 73.1488 641.684 78.7768 631.268 78.7768H630.596C623.876 78.7768 620.096 75.8788 619.34 75.0388V86.1268H609.974V55.6348ZM657.485 66.5548V78.2308H648.119V55.6348H657.401V59.6248C658.199 58.3648 660.929 55.1308 666.557 55.1308H667.019C673.571 55.1308 676.217 59.3728 676.217 65.2108V66.5128H667.187C667.187 63.6148 665.927 61.0948 662.399 61.0948H662.357C659.207 61.0948 657.485 63.6568 657.485 66.5548ZM697.147 78.8608H694.207C681.103 78.8608 677.953 72.3928 677.953 67.1848V66.4288C677.953 61.2208 681.061 55.0048 694.165 55.0048H697.147C710.923 55.0048 713.317 61.3048 713.317 66.4288V67.1848C713.317 72.3928 711.091 78.8608 697.147 78.8608ZM695.677 72.7708C702.061 72.7708 703.825 69.5788 703.825 66.9328V66.7228C703.825 63.9088 702.019 61.0108 695.719 61.0108H695.677C689.293 61.0108 687.529 63.8668 687.529 66.7228V66.9328C687.529 69.5788 689.293 72.7708 695.677 72.7708Z" fill="#147C89"/>
<defs>
<radialGradient id="paint0_radial_11_34" cx="0" cy="0" r="1" gradientUnits="userSpaceOnUse" gradientTransform="translate(149.5 68.573) rotate(43.9936) scale(34.0553 45.4496)">
<stop offset="0.0504058" stop-color="#1294A1"/>
<stop offset="1" stop-color="#1A2A37"/>
</radialGradient>
</defs>
</svg>
