<svg width="114" height="114" viewBox="0 0 114 114" fill="none" xmlns="http://www.w3.org/2000/svg">
<g id="icon.svg - 2025-02-17T182158.247 1">
<g id="Group">
<path id="Vector" d="M96.0268 89.5823C93.7309 82.7492 84.5801 78.4719 78.0559 75.6048C75.5 74.4853 68.424 72.5861 67.5736 69.3679C67.2692 68.2085 67.3102 67.1152 67.5599 66.0676C67.1666 66.1428 66.7676 66.1873 66.3549 66.1873H62.1038C58.7101 66.1873 55.9524 63.4262 55.9524 60.0347C55.9524 56.6455 58.7112 53.8901 62.1038 53.8901H66.3549C67.7594 53.8901 69.0909 54.3655 70.1648 55.2136C71.7391 55.0039 73.2576 54.6676 74.6735 54.2264C76.5328 50.331 77.9829 45.673 78.3078 41.6636C79.6952 24.5089 69.1787 14.4723 54.0999 16.2074C43.1365 17.4694 36.5872 25.6443 35.8793 36.1688C35.1634 46.8962 39.1408 54.8192 43.3657 60.6309C45.2159 63.172 47.1596 64.8056 46.8609 67.8676C46.5143 71.4883 42.6429 72.4972 39.8738 73.6098C36.5929 74.9276 33.0589 76.9272 31.39 77.8517C25.6409 81.0266 19.331 84.8502 17.9129 90.0805C14.7722 101.672 25.3787 105.183 34.1351 106.804C41.65 108.191 50.1236 108.3 57.0935 108.3C69.7008 108.3 92.3708 107.795 96.0268 98.3182C97.0665 95.6289 96.6208 91.3436 96.0268 89.5823Z" fill="#D6E2F3"/>
<path id="Vector_2" d="M69.0452 58.303C68.4684 57.424 67.4823 56.8404 66.3571 56.8404H62.1061C60.3322 56.8404 58.9015 58.2733 58.9015 60.0381C58.9015 61.8096 60.3322 63.2449 62.1061 63.2449H66.3571C67.5986 63.2449 68.6519 62.5369 69.1832 61.5132C75.11 61.047 80.2651 59.2366 83.8835 56.5633C84.7145 57.0991 85.6972 57.4126 86.7574 57.4126H87.0242C89.9791 57.4126 92.3685 55.0209 92.3685 52.0626V41.3831C92.3685 39.2558 91.1213 37.4205 89.3224 36.5677C88.5381 19.4187 74.3417 5.69995 57 5.69995C39.6583 5.69995 25.4596 19.4187 24.6787 36.5677C22.8764 37.4216 21.6304 39.2558 21.6304 41.3831V52.0626C21.6304 55.0209 24.0221 57.4126 26.9701 57.4126H27.2403C30.1906 57.4126 32.5835 55.0209 32.5835 52.0626V41.3831C32.5835 39.2866 31.3717 37.4786 29.6104 36.6042C30.373 22.1547 42.3635 10.6373 57 10.6373C71.6308 10.6373 83.627 22.1547 84.3862 36.6042C82.6272 37.4797 81.4165 39.2866 81.4165 41.3831V52.0626C81.4165 52.7717 81.5545 53.4318 81.7973 54.0485C78.6828 56.2772 74.149 57.8652 69.0452 58.303Z" fill="#D6E2F3"/>
</g>
</g>
</svg>
