<svg width="49" height="49" viewBox="0 0 49 49" fill="none" xmlns="http://www.w3.org/2000/svg">
<circle cx="24.5" cy="24.5" r="24.5" fill="url(#paint0_linear_0_882)"/>
<g clip-path="url(#clip0_0_882)">
<path d="M24.3647 24.1524C25.622 24.1524 26.7108 23.7014 27.6004 22.8116C28.49 21.922 28.941 20.8335 28.941 19.576C28.941 18.319 28.49 17.2303 27.6003 16.3404C26.7105 15.451 25.6219 15 24.3647 15C23.1072 15 22.0187 15.451 21.1291 16.3406C20.2394 17.2302 19.7883 18.3188 19.7883 19.576C19.7883 20.8335 20.2394 21.9222 21.1292 22.8118C22.019 23.7012 23.1076 24.1524 24.3647 24.1524Z" fill="#49D9DB"/>
<path d="M32.372 29.61C32.3463 29.2398 32.2944 28.836 32.218 28.4095C32.1409 27.9798 32.0416 27.5737 31.9227 27.2024C31.8 26.8187 31.633 26.4398 31.4266 26.0767C31.2123 25.6998 30.9607 25.3716 30.6783 25.1016C30.383 24.819 30.0215 24.5919 29.6034 24.4262C29.1868 24.2614 28.7251 24.1779 28.2312 24.1779C28.0373 24.1779 27.8497 24.2575 27.4874 24.4933C27.2645 24.6387 27.0037 24.8069 26.7126 24.9928C26.4638 25.1514 26.1266 25.3 25.7101 25.4345C25.3038 25.566 24.8912 25.6327 24.4841 25.6327C24.0769 25.6327 23.6645 25.566 23.2577 25.4345C22.8417 25.3001 22.5045 25.1516 22.2559 24.993C21.9676 24.8087 21.7066 24.6406 21.4804 24.4932C21.1186 24.2573 20.9308 24.1777 20.7369 24.1777C20.2429 24.1777 19.7813 24.2614 19.3648 24.4263C18.9471 24.5917 18.5854 24.8189 18.2898 25.1017C18.0076 25.3719 17.7558 25.6999 17.5418 26.0767C17.3356 26.4398 17.1686 26.8186 17.0457 27.2026C16.9269 27.5738 16.8276 27.9798 16.7505 28.4095C16.6741 28.8354 16.6222 29.2394 16.5966 29.6105C16.5714 29.974 16.5586 30.3513 16.5586 30.7324C16.5586 31.7242 16.8739 32.5272 17.4956 33.1193C18.1096 33.7036 18.9221 34.0001 19.9102 34.0001H29.0588C30.0468 34.0001 30.859 33.7038 31.4732 33.1193C32.0951 32.5276 32.4104 31.7245 32.4104 30.7323C32.4102 30.3495 32.3973 29.9718 32.372 29.61Z" fill="#49D9DB"/>
</g>
<defs>
<linearGradient id="paint0_linear_0_882" x1="24.5" y1="0" x2="24.5" y2="40.5431" gradientUnits="userSpaceOnUse">
<stop stop-color="#27275E"/>
<stop offset="1" stop-color="#30306C"/>
</linearGradient>
<clipPath id="clip0_0_882">
<rect width="19" height="19" fill="white" transform="translate(15 15)"/>
</clipPath>
</defs>
</svg>
